Coordinates
version=1
nRows=19
nColumns=36
inDegrees=yes

Units are S.I. units (second, meters, Newtons, ...)
If the header above contains a line with 'inDegrees', this indicates whether rotational values are in degrees (yes) or radians (no).

endheader
time	pelvis_tilt	pelvis_list	pelvis_rotation	pelvis_tx	pelvis_ty	pelvis_tz	hip_flexion_r	hip_adduction_r	hip_rotation_r	knee_angle_r	knee_angle_r_beta	ankle_angle_r	subtalar_angle_r	mtp_angle_r	hip_flexion_l	hip_adduction_l	hip_rotation_l	knee_angle_l	knee_angle_l_beta	ankle_angle_l	subtalar_angle_l	mtp_angle_l	lumbar_extension	lumbar_bending	lumbar_rotation	arm_flex_r	arm_add_r	arm_rot_r	elbow_flex_r	pro_sup_r	arm_flex_l	arm_add_l	arm_rot_l	elbow_flex_l	pro_sup_l
      0.00000000	      0.69526280	     -1.10884629	      4.35006912	     -0.13134122	      1.03446265	     -0.24754624	     19.71983390	      1.25127476	     -5.01842772	      2.22490827	      0.03883197	      3.81159991	      5.22014758	     -4.55727024	    -10.74722814	      1.85374557	      8.43881564	     13.78319030	      0.24056205	     17.98714691	      1.17075646	     -4.55727024	     -7.37880209	      0.00794131	     -6.19039666	    -16.13895007	     -0.83255311	    -24.49356486	     46.89684653	    106.88119505	     19.65424593	    -23.85895640	      5.30493854	     66.10914938	     92.63629553
      0.01000000	      0.95310916	     -1.32741753	      4.37913145	     -0.11851091	      1.03423828	     -0.24647501	     19.19373992	      1.65223787	     -4.97067652	      2.96776950	      0.05179735	      3.58831511	      5.10407990	     -4.57786725	    -11.11746758	      1.51072917	      8.25777535	     15.01807053	      0.26211478	     17.67622175	      0.93582276	     -4.57786725	     -7.41034537	      0.40566784	     -6.07321715	    -16.22395430	     -0.77699196	    -24.64704292	     46.56763191	    106.85088902	     19.62319981	    -23.80705935	      5.33190752	     66.71985045	     92.75206689
      0.02000000	      1.17973902	     -1.56152302	      4.37771259	     -0.10556529	      1.03399006	     -0.24532241	     18.70099286	      2.08717990	     -4.92033998	      3.70349112	      0.06463811	      3.30221208	      4.87410266	     -4.60043653	    -11.41571218	      1.14595581	      7.93478946	     16.32646801	      0.28495062	     17.28047518	      0.75409398	     -4.60043653	     -7.40096478	      0.81825034	     -6.00441123	    -16.26714578	     -0.70187239	    -24.90445802	     46.17711281	    106.80586999	     19.41658554	    -23.80936831	      5.30328203	     67.46267768	     92.87596827
      0.03000000	      1.25949001	     -1.81319754	      4.34967433	     -0.09244674	      1.03372664	     -0.24397733	     18.31616092	      2.57603121	     -4.52985777	      4.34254247	      0.07579166	      2.66624763	      4.07003799	     -4.70485745	    -11.45270714	      0.71706760	      7.34202720	     17.79882483	      0.31064810	     16.92107658	      1.11888128	     -4.70485745	     -7.21596907	      1.22983275	     -6.39756562	    -16.00483425	     -0.58803605	    -25.28269819	     45.62062884	    106.76956409	     18.39065504	    -24.00311970	      4.38988445	     68.90943570	     93.13816738
      0.04000000	      1.51726249	     -2.05444967	      4.31009027	     -0.07922028	      1.03382410	     -0.24264673	     17.72799367	      3.03904119	     -4.53892630	      4.96438283	      0.08664483	      2.38649830	      3.84709317	     -4.72783087	    -11.63772947	      0.32257020	      6.89584878	     19.33472450	      0.33745460	     16.12248200	      0.90153539	     -4.72783087	     -7.23206248	      1.63368111	     -6.21273846	    -16.14175942	     -0.58132155	    -25.29822844	     45.31068893	    106.75815337	     18.10829847	    -23.88028217	      4.33662582	     69.49376357	     93.22574114
      0.05000000	      1.70737985	     -2.30087212	      4.24200198	     -0.06584475	      1.03407040	     -0.24116674	     17.18800878	      3.51032658	     -4.52296345	      5.54299907	      0.09674358	      1.94598945	      3.53799307	     -4.75207528	    -11.61003474	     -0.10560416	      6.25253554	     21.08909454	      0.36807414	     15.04777574	      0.74426791	     -4.75207528	     -7.16639239	      2.02596813	     -6.07738342	    -16.24746367	     -0.54640913	    -25.41120015	     44.99248406	    106.73278141	     17.57109266	    -23.80249453	      4.23411753	     70.18818186	     93.31926135
      0.06000000	      1.93096761	     -2.54473039	      4.15822626	     -0.05247555	      1.03457193	     -0.23960638	     16.60178774	      3.97533282	     -4.38909293	      6.13839823	      0.10713526	      1.48157807	      3.27868530	     -4.77006705	    -11.50819647	     -0.52950849	      5.68244852	     23.00242535	      0.40146806	     13.81598296	      0.65680502	     -4.77006705	     -7.13991141	      2.40461667	     -5.92215420	    -16.34254175	     -0.51252369	    -25.49987648	     44.72204264	    106.70982139	     17.00382877	    -23.68608488	      4.12224965	     70.79767299	     93.39385857
      0.07000000	      1.86206933	     -2.83489187	      3.95541355	     -0.03892746	      1.03496298	     -0.23777168	     16.23901909	      4.56033082	     -3.49157046	      6.54391577	      0.11421288	      0.23188403	      1.44356546	     -4.89343214	    -10.87934553	     -1.05108764	      4.64233089	     25.25817118	      0.44083825	     12.38826270	      0.74703327	     -4.89343214	     -6.79358874	      2.80885748	     -6.49742472	    -15.97976252	     -0.66219439	    -25.20964573	     44.10680232	    106.72567765	     15.04130457	    -23.71762083	      2.46355919	     72.49366685	     93.56434112
      0.08000000	      2.09685272	     -3.10920329	      3.78261450	     -0.02549439	      1.03592155	     -0.23600564	     15.60740996	      5.04271241	     -3.34487870	      7.11275680	      0.12414103	     -0.19955560	      1.29450363	     -4.92512667	    -10.45639089	     -1.57684407	      3.73046526	     27.64668215	      0.48252563	     10.56714363	      0.58680622	     -4.92512667	     -6.80290551	      3.21648601	     -6.23094562	    -16.09938356	     -0.71766159	    -25.09621483	     43.88204021	    106.72741654	     14.30428930	    -23.55614135	      2.46112509	     72.97176989	     93.63911055
      0.09000000	      2.15947748	     -3.35316741	      3.58116824	     -0.01225722	      1.03686276	     -0.23412689	     15.12109997	      5.52903750	     -2.56019641	      7.64241841	      0.13338536	     -0.93317009	      0.13150848	     -5.04591096	     -9.62046349	     -2.06650464	      2.89817540	     30.36244974	      0.52992472	      8.55718851	      0.24126137	     -5.04591096	     -6.66632619	      3.55297769	     -6.42571524	    -15.90393467	     -0.88289088	    -24.65760668	     43.43507950	    106.74848737	     12.83770719	    -23.42937731	      1.53957121	     73.98800043	     93.78763776
      0.10000000	      2.45556067	     -3.64017877	      3.41032225	      0.00087744	      1.03822673	     -0.23229027	     14.37170153	      6.01231346	     -2.28648821	      8.18046279	      0.14277601	     -1.00108140	      0.05488274	     -5.06838871	     -8.84291032	     -2.69443291	      1.95321245	     33.31210133	      0.58140585	      6.43720427	      0.15230896	     -5.06838871	     -6.81821964	      3.95893569	     -6.10513393	    -15.96826535	     -0.92530481	    -24.60807822	     43.29795733	    106.74461149	     12.07804215	    -23.19296838	      1.64158861	     74.33445101	     93.85252098
      0.11000000	      2.48531529	     -3.86594910	      3.22128678	      0.01374024	      1.03940474	     -0.23040200	     13.89405804	      6.45907584	     -1.49768383	      8.73393309	      0.15243589	     -1.37319811	     -0.82802762	     -5.24194266	     -7.55285321	     -3.21270658	      1.24868071	     36.52753986	      0.63752584	      3.90674447	     -0.47224228	     -5.24194266	     -6.71844171	      4.25167778	     -6.37328720	    -15.71504356	     -1.16119474	    -24.00327809	     42.90715718	    106.78181902	     10.47856238	    -23.04792026	      0.68072654	     75.26140133	     94.08256986
      0.12000000	      2.88417441	     -4.08249881	      3.12823048	      0.02628588	      1.04105897	     -0.22858720	     12.96317504	      6.86926380	     -1.16320875	      9.19178250	      0.16042687	     -1.12018454	     -0.80622557	     -5.25590317	     -6.47737097	     -3.80482497	      0.65054387	     39.92760865	      0.69686823	      1.74812037	     -0.49041984	     -5.25590317	     -7.09618515	      4.53471841	     -6.04697407	    -15.72673426	     -1.15839037	    -23.98260024	     42.84035461	    106.77834015	      9.82869646	    -22.78492003	      0.80350508	     75.44197886	     94.12669014
      0.13000000	      2.89676608	     -4.44650178	      3.02739397	      0.03871560	      1.04219724	     -0.22686825	     12.41329798	      7.42011150	     -0.92881249	      9.55046553	      0.16668707	     -0.72729422	     -0.94257378	     -5.27662840	     -4.73379708	     -4.58025473	      0.03607883	     43.59098237	      0.76080617	     -1.07860167	     -0.90428805	     -5.27662840	     -7.02166780	      5.01231666	     -5.85236714	    -15.74507446	     -1.26361651	    -23.97702783	     42.90256734	    106.78256989	      8.84408156	    -22.49914564	      0.88784748	     75.71333455	     94.19263815
      0.14000000	      2.87087695	     -4.65032252	      2.98362656	      0.05073908	      1.04325261	     -0.22525056	     11.88110004	      7.78791604	     -0.75948501	      9.86371000	      0.17215422	     -0.36458955	     -1.06324335	     -5.30228875	     -2.81886586	     -5.09472963	     -0.20895542	     47.28176423	      0.82522246	     -3.93273314	     -1.72379242	     -5.30228875	     -6.96592883	      5.25617233	     -5.81555101	    -15.71007584	     -1.36170619	    -23.90473740	     43.00887483	    106.79722704	      7.81341769	    -22.23409778	      0.73627541	     75.95397743	     94.25412679
      0.15000000	      2.79572965	     -4.72849558	      2.97072452	      0.06245458	      1.04433549	     -0.22383830	     11.36736656	      7.99095644	     -0.78979836	     10.10649636	      0.17639164	      0.09364234	     -0.95709582	     -5.44533712	     -0.79197558	     -5.33781427	     -0.20854051	     50.82496312	      0.88706295	     -7.28592197	     -3.54243008	     -5.44533712	     -6.95853598	      5.32728839	     -6.42583828	    -15.23501154	     -1.64362482	    -23.03895910	     42.75569283	    106.86020407	      6.01339184	    -21.90090996	     -0.59544382	     76.78267126	     94.53089334
      0.16000000	      2.92820839	     -4.96298780	      2.99668279	      0.07408103	      1.04549699	     -0.22241353	     10.48117212	      8.40529262	     -0.76821087	     10.04842490	      0.17537810	      0.66741282	     -0.91529714	     -5.46290212	      1.04873653	     -5.87024546	     -0.28629483	     54.34231258	      0.94845228	     -9.32911201	     -3.84173681	     -5.46290212	     -7.16339793	      5.58847001	     -6.21960134	    -15.21205217	     -1.76104275	    -22.96073766	     42.91507656	    106.86854367	      5.24415900	    -21.49871445	     -0.50074948	     76.80400792	     94.57151874
      0.17000000	      2.65604117	     -5.02169145	      3.01656966	      0.08538270	      1.04616007	     -0.22109909	     10.10234722	      8.57119414	     -1.04206527	     10.08645767	      0.17604190	      1.10586643	     -0.72755170	     -5.50468495	      3.36757956	     -6.04381133	     -0.22281892	     57.68735028	      1.00683420	    -11.61161527	     -5.56560239	     -5.50468495	     -6.94106857	      5.62499152	     -6.35409487	    -15.17154180	     -1.86915457	    -22.70204836	     43.29731958	    106.88114456	      4.08738316	    -21.11706645	     -0.84113794	     76.80947955	     94.64223012
      0.18000000	      2.65658309	     -5.06729438	      3.02022381	      0.09673151	      1.04724069	     -0.21983775	      9.30929950	      8.73409464	     -1.34656135	      9.91925904	      0.17312373	      1.88074103	     -0.12834122	     -5.66033710	      5.25077758	     -6.20788028	     -0.23158600	     60.64453882	      1.05844688	    -13.12144103	     -7.16576490	     -5.66033710	     -7.06489857	      5.59295434	     -6.75927900	    -14.75570891	     -2.19919323	    -21.73206237	     43.13291945	    106.78035600	      2.53195465	    -20.62747342	     -1.87696738	     77.22251566	     94.97990803
